<svg width="204" height="33" viewBox="0 0 204 33" fill="none" xmlns="http://www.w3.org/2000/svg">
<path d="M4.93037 24.4455C4.42931 24.4455 3.88818 24.396 3.30695 24.297C2.72573 24.198 2.18459 24 1.68354 23.703C1.20253 23.4059 0.801686 22.9901 0.481011 22.4554C0.160337 21.9208 0 21.2277 0 20.3762C0 19.5842 0.140295 18.9208 0.420885 18.3861C0.701475 17.8515 1.07225 17.4158 1.53322 17.0792C1.99419 16.7228 2.50527 16.4455 3.06645 16.2475C3.64767 16.0297 4.23891 15.8416 4.84018 15.6832L10.4019 14.198V13.901C10.4019 13.4653 10.3117 13.099 10.1313 12.802C9.97096 12.4851 9.7505 12.2376 9.46991 12.0594C9.20936 11.8614 8.90873 11.7228 8.56802 11.6436C8.2273 11.5644 7.87656 11.5248 7.5158 11.5248C6.67403 11.5248 5.93247 11.7327 5.29113 12.1485C4.66982 12.5446 4.28902 13.1188 4.14872 13.8713H0.661391C0.761601 13 1.00211 12.2475 1.38291 11.6139C1.76371 10.9604 2.25474 10.4257 2.856 10.0099C3.45727 9.57426 4.15874 9.25743 4.96043 9.05941C5.76212 8.84158 6.61391 8.73267 7.5158 8.73267C8.19724 8.73267 8.89871 8.80198 9.62023 8.9406C10.3618 9.07921 11.0332 9.34653 11.6345 9.74257C12.2558 10.1386 12.7568 10.6931 13.1376 11.4059C13.5385 12.099 13.7389 13 13.7389 14.1089V20.1386C13.7389 20.4356 13.799 20.6535 13.9193 20.7921C14.0395 20.9109 14.25 20.9703 14.5506 20.9703H15.4224V24.0594H12.6867C12.1055 24.0594 11.6545 23.9406 11.3338 23.703C11.0132 23.4653 10.7927 23.1287 10.6724 22.6931L10.5221 22.1287H10.4019C9.76052 22.8614 8.97888 23.4356 8.05694 23.8515C7.15504 24.2475 6.11285 24.4455 4.93037 24.4455ZM5.71201 21.7129C6.33332 21.7129 6.92456 21.6238 7.48574 21.4455C8.04692 21.2673 8.53795 21.0099 8.95884 20.6733C9.39976 20.3168 9.7505 19.8812 10.011 19.3663C10.2716 18.8317 10.4019 18.2178 10.4019 17.5248V16.901L5.38131 18.2376C4.71992 18.4158 4.22889 18.6436 3.90822 18.9208C3.58754 19.1782 3.42721 19.5644 3.42721 20.0792C3.42721 20.4356 3.49735 20.7228 3.63765 20.9406C3.77794 21.1584 3.95832 21.3267 4.17879 21.4455C4.41929 21.5446 4.66982 21.6139 4.93037 21.6535C5.21096 21.6931 5.4715 21.7129 5.71201 21.7129Z" fill="white"/>
<path d="M49.9878 6.77228C49.3665 6.77228 48.8454 6.60396 48.4245 6.26733C48.0237 5.91089 47.8233 5.44554 47.8233 4.87129C47.8233 4.29703 48.0237 3.84159 48.4245 3.50495C48.8454 3.16832 49.3665 3 49.9878 3C50.6292 3 51.1503 3.16832 51.5511 3.50495C51.952 3.84159 52.1524 4.29703 52.1524 4.87129C52.1524 5.44554 51.952 5.91089 51.5511 6.26733C51.1503 6.60396 50.6292 6.77228 49.9878 6.77228ZM15.6557 9.11881H19.2632V7.9604C19.2632 6.35644 19.6541 5.17822 20.4357 4.42574C21.2173 3.65347 22.4199 3.26733 24.0433 3.26733H30.3265V6.26733H24.5544C23.8529 6.26733 23.3619 6.40594 23.0813 6.68317C22.8207 6.9604 22.6904 7.44555 22.6904 8.13861V9.11881H33.9341V7.9604C33.9341 6.35644 34.3249 5.17822 35.1065 4.42574C35.8882 3.65347 37.0907 3.26733 38.7141 3.26733H44.9973V6.26733H39.2252C38.5237 6.26733 38.0327 6.40594 37.7521 6.68317C37.4916 6.9604 37.3613 7.44555 37.3613 8.13861V9.11881H51.7014V24.0594H48.3043V12.1782H37.3613V24.0594H33.9341V12.1782H22.6904V24.0594H19.2632V12.1782H15.6557V9.11881Z" fill="white"/>
<path d="M55.7064 9.11881H59.1036V11.0495H59.2238C59.7449 10.4356 60.4163 9.90099 61.2381 9.44555C62.0598 8.9703 63.0719 8.73267 64.2744 8.73267C65.0761 8.73267 65.8377 8.86139 66.5592 9.11881C67.2808 9.37624 67.9121 9.77228 68.4532 10.3069C68.9944 10.8218 69.4253 11.4752 69.7459 12.2673C70.0666 13.0594 70.227 13.9802 70.227 15.0297V24.0594H66.7997V15.505C66.7997 14.8119 66.6895 14.2376 66.469 13.7822C66.2686 13.3069 65.988 12.9307 65.6273 12.6535C65.2866 12.3564 64.9058 12.1485 64.4849 12.0297C64.064 11.8911 63.6431 11.8218 63.2222 11.8218C62.6811 11.8218 62.16 11.9208 61.6589 12.1188C61.1779 12.3168 60.747 12.6139 60.3662 13.0099C59.9854 13.4059 59.6748 13.901 59.4343 14.495C59.2138 15.0693 59.1036 15.7426 59.1036 16.5149V24.0594H55.7064V9.11881Z" fill="white"/>
<path d="M74.045 9.11881H77.4421V24.0594H74.045V9.11881ZM75.7586 6.77228C75.1172 6.77228 74.5961 6.60396 74.1953 6.26733C73.7945 5.91089 73.594 5.44554 73.594 4.87129C73.594 4.29703 73.7945 3.84159 74.1953 3.50495C74.5961 3.16832 75.1172 3 75.7586 3C76.3999 3 76.921 3.16832 77.3219 3.50495C77.7227 3.84159 77.9231 4.29703 77.9231 4.87129C77.9231 5.44554 77.7227 5.91089 77.3219 6.26733C76.921 6.60396 76.3999 6.77228 75.7586 6.77228Z" fill="white"/>
<path d="M88.6862 24.0594C87.0628 24.0594 85.8603 23.6832 85.0787 22.9307C84.297 22.1584 83.9062 20.9703 83.9062 19.3663V12.1782H80.2986V9.11881H83.9062V4.27723H87.3334V9.11881H94.9695V12.1782H87.3334V19.099C87.3334 19.7921 87.4637 20.2772 87.7242 20.5545C88.0048 20.8317 88.4958 20.9703 89.1973 20.9703H94.9695V24.0594H88.6862Z" fill="white"/>
<path d="M97.9837 26.9109H100.389C100.95 26.9109 101.401 26.7822 101.742 26.5248C102.082 26.2871 102.373 25.8812 102.613 25.3069L103.185 23.9406L96.3303 9.11881H100.028L104.808 19.604H104.958L109.288 9.11881H112.895L105.68 26.4356C105.399 27.1089 105.109 27.6733 104.808 28.1287C104.507 28.5842 104.147 28.9505 103.726 29.2277C103.325 29.505 102.854 29.703 102.313 29.8218C101.792 29.9406 101.15 30 100.389 30H97.9837V26.9109Z" fill="white"/>
<path d="M128.469 24.4455C127.547 24.4455 126.645 24.3663 125.763 24.2079C124.901 24.0495 124.119 23.7822 123.418 23.4059C122.736 23.0099 122.165 22.4851 121.704 21.8317C121.263 21.1584 121.003 20.3168 120.923 19.3069H124.41C124.51 19.7624 124.701 20.1386 124.981 20.4356C125.262 20.7327 125.582 20.9703 125.943 21.1485C126.324 21.3267 126.735 21.4554 127.176 21.5347C127.617 21.6139 128.048 21.6535 128.469 21.6535C128.829 21.6535 129.2 21.6238 129.581 21.5644C129.962 21.505 130.312 21.4059 130.633 21.2673C130.954 21.1287 131.214 20.9406 131.415 20.703C131.615 20.4653 131.715 20.1584 131.715 19.7822C131.715 19.2277 131.455 18.8317 130.934 18.5941C130.433 18.3366 129.791 18.1485 129.01 18.0297C128.248 17.8911 127.416 17.7624 126.514 17.6436C125.633 17.5248 124.801 17.3168 124.019 17.0198C123.258 16.703 122.616 16.2574 122.095 15.6832C121.594 15.0891 121.344 14.2574 121.344 13.1881C121.344 12.297 121.544 11.5644 121.945 10.9901C122.366 10.396 122.897 9.94059 123.538 9.62376C124.18 9.28713 124.881 9.05941 125.643 8.9406C126.424 8.80198 127.176 8.73267 127.897 8.73267C128.679 8.73267 129.461 8.81188 130.242 8.9703C131.044 9.10891 131.765 9.35644 132.407 9.71287C133.068 10.0693 133.609 10.5545 134.03 11.1683C134.471 11.7822 134.732 12.5545 134.812 13.4851H131.325C131.244 13.0891 131.084 12.7624 130.844 12.505C130.603 12.2475 130.312 12.0495 129.972 11.9109C129.651 11.7525 129.3 11.6535 128.919 11.6139C128.559 11.5545 128.208 11.5248 127.867 11.5248C127.587 11.5248 127.266 11.5446 126.905 11.5842C126.544 11.6238 126.204 11.703 125.883 11.8218C125.582 11.9406 125.322 12.1089 125.101 12.3267C124.881 12.5446 124.771 12.8317 124.771 13.1881C124.771 13.703 125.021 14.0693 125.522 14.2871C126.043 14.505 126.685 14.6832 127.446 14.8218C128.208 14.9406 129.04 15.0594 129.942 15.1782C130.844 15.297 131.675 15.5149 132.437 15.8317C133.198 16.1485 133.83 16.6139 134.331 17.2277C134.852 17.8416 135.113 18.6931 135.113 19.7822C135.113 20.7525 134.912 21.5446 134.511 22.1584C134.11 22.7525 133.589 23.2277 132.948 23.5842C132.307 23.9208 131.585 24.1485 130.783 24.2673C130.002 24.3861 129.23 24.4455 128.469 24.4455Z" fill="white"/>
<path d="M146.296 8.73267C147.358 8.73267 148.32 8.92079 149.182 9.29703C150.064 9.67327 150.805 10.2079 151.407 10.901C152.028 11.5743 152.509 12.396 152.85 13.3663C153.19 14.3366 153.361 15.4059 153.361 16.5743C153.361 17.7624 153.19 18.8416 152.85 19.8119C152.509 20.7624 152.028 21.5842 151.407 22.2772C150.805 22.9703 150.064 23.505 149.182 23.8812C148.32 24.2574 147.358 24.4455 146.296 24.4455C145.093 24.4455 144.071 24.2277 143.229 23.7921C142.388 23.3366 141.686 22.7822 141.125 22.1287H141.005V30H137.608V9.11881H141.005V11.0495H141.125C141.686 10.396 142.388 9.85149 143.229 9.41584C144.071 8.9604 145.093 8.73267 146.296 8.73267ZM145.484 21.3861C146.125 21.3861 146.717 21.2673 147.258 21.0297C147.819 20.7921 148.3 20.4653 148.701 20.0495C149.102 19.6337 149.412 19.1287 149.633 18.5347C149.853 17.9406 149.964 17.2871 149.964 16.5743C149.964 15.8614 149.853 15.2178 149.633 14.6436C149.412 14.0495 149.102 13.5446 148.701 13.1287C148.3 12.6931 147.819 12.3663 147.258 12.1485C146.717 11.9109 146.125 11.7921 145.484 11.7921C144.823 11.7921 144.211 11.9109 143.65 12.1485C143.109 12.3663 142.628 12.6931 142.207 13.1287C141.806 13.5446 141.486 14.0495 141.245 14.6436C141.025 15.2178 140.914 15.8614 140.914 16.5743C140.914 17.2871 141.025 17.9406 141.245 18.5347C141.486 19.1287 141.806 19.6337 142.207 20.0495C142.628 20.4653 143.109 20.7921 143.65 21.0297C144.211 21.2673 144.823 21.3861 145.484 21.3861Z" fill="white"/>
<path d="M159.724 24.4455C159.223 24.4455 158.682 24.396 158.101 24.297C157.52 24.198 156.978 24 156.477 23.703C155.996 23.4059 155.596 22.9901 155.275 22.4554C154.954 21.9208 154.794 21.2277 154.794 20.3762C154.794 19.5842 154.934 18.9208 155.215 18.3861C155.495 17.8515 155.866 17.4158 156.327 17.0792C156.788 16.7228 157.299 16.4455 157.86 16.2475C158.441 16.0297 159.033 15.8416 159.634 15.6832L165.196 14.198V13.901C165.196 13.4653 165.105 13.099 164.925 12.802C164.765 12.4851 164.544 12.2376 164.264 12.0594C164.003 11.8614 163.703 11.7228 163.362 11.6436C163.021 11.5644 162.67 11.5248 162.31 11.5248C161.468 11.5248 160.726 11.7327 160.085 12.1485C159.464 12.5446 159.083 13.1188 158.943 13.8713H155.455C155.555 13 155.796 12.2475 156.177 11.6139C156.558 10.9604 157.049 10.4257 157.65 10.0099C158.251 9.57426 158.953 9.25743 159.754 9.05941C160.556 8.84158 161.408 8.73267 162.31 8.73267C162.991 8.73267 163.693 8.80198 164.414 8.9406C165.156 9.07921 165.827 9.34653 166.428 9.74257C167.05 10.1386 167.551 10.6931 167.931 11.4059C168.332 12.099 168.533 13 168.533 14.1089V20.1386C168.533 20.4356 168.593 20.6535 168.713 20.7921C168.833 20.9109 169.044 20.9703 169.344 20.9703H170.216V24.0594H167.48C166.899 24.0594 166.448 23.9406 166.128 23.703C165.807 23.4653 165.587 23.1287 165.466 22.6931L165.316 22.1287H165.196C164.554 22.8614 163.773 23.4356 162.851 23.8515C161.949 24.2475 160.907 24.4455 159.724 24.4455ZM160.506 21.7129C161.127 21.7129 161.718 21.6238 162.28 21.4455C162.841 21.2673 163.332 21.0099 163.753 20.6733C164.194 20.3168 164.544 19.8812 164.805 19.3663C165.065 18.8317 165.196 18.2178 165.196 17.5248V16.901L160.175 18.2376C159.514 18.4158 159.023 18.6436 158.702 18.9208C158.381 19.1782 158.221 19.5644 158.221 20.0792C158.221 20.4356 158.291 20.7228 158.431 20.9406C158.572 21.1584 158.752 21.3267 158.973 21.4455C159.213 21.5446 159.464 21.6139 159.724 21.6535C160.005 21.6931 160.265 21.7129 160.506 21.7129Z" fill="white"/>
<path d="M179.326 24.4455C178.184 24.4455 177.132 24.2574 176.17 23.8812C175.228 23.505 174.406 22.9802 173.705 22.3069C173.023 21.6139 172.482 20.7822 172.081 19.8119C171.7 18.8416 171.51 17.7624 171.51 16.5743C171.51 15.3861 171.7 14.3168 172.081 13.3663C172.482 12.396 173.023 11.5743 173.705 10.901C174.406 10.2079 175.228 9.67327 176.17 9.29703C177.132 8.92079 178.184 8.73267 179.326 8.73267C180.228 8.73267 181.09 8.86139 181.912 9.11881C182.754 9.35644 183.515 9.73267 184.197 10.2475C184.878 10.7426 185.459 11.3663 185.94 12.1188C186.421 12.8515 186.762 13.7129 186.962 14.703H183.445C183.064 13.7327 182.523 13.0099 181.822 12.5347C181.12 12.0396 180.288 11.7921 179.326 11.7921C177.984 11.7921 176.911 12.2277 176.11 13.099C175.308 13.9703 174.907 15.1287 174.907 16.5743C174.907 18.0396 175.308 19.2079 176.11 20.0792C176.911 20.9505 177.984 21.3861 179.326 21.3861C180.288 21.3861 181.12 21.1485 181.822 20.6733C182.523 20.1782 183.064 19.4455 183.445 18.4752H186.962C186.762 19.4653 186.421 20.3366 185.94 21.0891C185.459 21.8218 184.878 22.4455 184.197 22.9604C183.515 23.4554 182.754 23.8218 181.912 24.0594C181.09 24.3168 180.228 24.4455 179.326 24.4455Z" fill="white"/>
<path d="M196.334 24.4455C195.232 24.4455 194.199 24.2574 193.237 23.8812C192.295 23.505 191.464 22.9703 190.742 22.2772C190.041 21.5842 189.49 20.7525 189.089 19.7822C188.688 18.8119 188.487 17.7426 188.487 16.5743C188.487 15.4059 188.688 14.3366 189.089 13.3663C189.51 12.396 190.071 11.5743 190.772 10.901C191.474 10.2079 192.295 9.67327 193.237 9.29703C194.199 8.92079 195.232 8.73267 196.334 8.73267C197.436 8.73267 198.448 8.91089 199.37 9.26733C200.312 9.62376 201.124 10.1386 201.805 10.8119C202.487 11.4851 203.018 12.297 203.399 13.2475C203.8 14.198 204 15.2574 204 16.4257C204 16.5842 204 16.7426 204 16.901C204 17.0396 203.99 17.1782 203.97 17.3168C203.97 17.4554 203.96 17.5941 203.94 17.7327H191.945C192.145 18.9208 192.636 19.8713 193.418 20.5842C194.219 21.297 195.191 21.6535 196.334 21.6535C197.156 21.6535 197.887 21.4752 198.529 21.1188C199.19 20.7426 199.701 20.2376 200.062 19.604H203.669C203.409 20.2772 203.048 20.9109 202.587 21.505C202.126 22.099 201.585 22.6139 200.964 23.0495C200.342 23.4851 199.641 23.8218 198.859 24.0594C198.078 24.3168 197.236 24.4455 196.334 24.4455ZM200.483 15.1188C200.282 14.0495 199.821 13.1881 199.1 12.5347C198.398 11.8614 197.476 11.5248 196.334 11.5248C195.232 11.5248 194.29 11.8515 193.508 12.505C192.746 13.1386 192.245 14.0099 192.005 15.1188H200.483Z" fill="white"/>
</svg>
