<svg width="712" height="532" viewBox="0 0 712 532" fill="none" xmlns="http://www.w3.org/2000/svg">
<g clip-path="url(#clip0_775_89)">
<path d="M628.277 137.34C654.518 185.035 646.419 243.44 611.957 299.361C577.499 355.276 516.719 408.636 437.772 446.16C358.824 483.685 276.699 498.247 207.754 491.48C138.802 484.713 83.1162 456.625 56.8753 408.93C30.6343 361.235 38.7337 302.831 73.1959 246.909C107.654 190.995 168.433 137.634 247.381 100.11C326.329 62.5858 408.454 48.0231 477.398 54.7901C546.351 61.5579 602.037 89.6452 628.277 137.34Z" stroke="#456441"/>
<path fill-rule="evenodd" clip-rule="evenodd" d="M670.039 298.053C709.852 232.171 718.743 163.207 687.632 106.661C656.521 50.1153 591.162 16.443 510.388 7.87593C429.629 -0.689655 333.613 15.8712 241.517 59.6448C149.421 103.418 78.7672 166.077 38.9613 231.947C-0.851619 297.83 -9.74242 366.794 21.3681 423.339C52.4787 479.885 117.838 513.558 198.612 522.125C279.371 530.69 375.387 514.129 467.483 470.356C559.579 426.582 630.233 363.924 670.039 298.053ZM467.965 471.232C652.447 383.546 751.2 220.13 688.535 106.232C625.87 -7.6667 425.518 -28.9167 241.035 58.7687C56.5526 146.454 -42.2 309.87 20.4649 423.769C83.1299 537.667 283.483 558.917 467.965 471.232Z" fill="url(#paint0_linear_775_89)"/>
<circle cx="652" cy="333" r="39" fill="#456441"/>
<circle cx="267" cy="92" r="7" fill="#456441"/>
</g>
<defs>
<linearGradient id="paint0_linear_775_89" x1="92" y1="170.5" x2="519.478" y2="491.37" gradientUnits="userSpaceOnUse">
<stop stop-color="white"/>
<stop offset="1" stop-color="#456441"/>
</linearGradient>
<clipPath id="clip0_775_89">
<rect width="712" height="532" fill="white"/>
</clipPath>
</defs>
</svg>
