<svg width="75" height="65" viewBox="0 0 75 65" fill="none" xmlns="http://www.w3.org/2000/svg">
<path d="M15.3629 32.9851C20.3629 32.0958 24.5161 33.0255 27.8226 35.7743C31.2097 38.523 32.9032 42.727 32.9032 48.3862C32.9032 53.5603 31.371 57.643 28.3064 60.6343C25.3226 63.5448 21.4919 65 16.8145 65C11.3306 65 7.1371 62.9789 4.23387 58.9366C1.41129 54.8943 0 49.3159 0 42.2015C0 35.8147 1.00806 29.7512 3.02419 24.0112C5.04032 18.1903 8.3871 13.0162 13.0645 8.48881C17.8226 3.96144 23.629 1.13184 30.4839 0V14.0672C25.8871 14.8756 22.2177 17.0585 19.4758 20.6157C16.7339 24.092 15.3629 28.2152 15.3629 32.9851ZM57.4597 32.9851C62.4597 32.0958 66.6129 33.0255 69.9193 35.7743C73.3064 38.523 75 42.727 75 48.3862C75 53.5603 73.4677 57.643 70.4032 60.6343C67.4193 63.5448 63.5887 65 58.9113 65C53.4274 65 49.2339 62.9789 46.3306 58.9366C43.5081 54.8943 42.0968 49.3159 42.0968 42.2015C42.0968 35.8147 43.1048 29.7512 45.121 24.0112C47.1371 18.1903 50.4839 13.0162 55.1613 8.48881C59.9194 3.96144 65.7258 1.13184 72.5806 0V14.0672C67.9839 14.8756 64.3145 17.0585 61.5726 20.6157C58.8306 24.092 57.4597 28.2152 57.4597 32.9851Z" fill="#456441"/>
</svg>
