<svg width="393" height="273" viewBox="0 0 393 273" fill="none" xmlns="http://www.w3.org/2000/svg">
<g clip-path="url(#clip0_781_88)">
<circle opacity="0.4" cx="370.526" cy="89.8962" r="9.18872" fill="#456441"/>
<circle opacity="0.6" cx="292.422" cy="204.074" r="8.67823" fill="#456441"/>
<path fill-rule="evenodd" clip-rule="evenodd" d="M343.917 190.586C370.845 163.885 383.369 132.001 375.291 101.25C367.212 70.499 340.024 46.5671 302.458 32.7806C264.9 18.9965 217.036 15.3869 167.78 25.25C118.523 35.1131 77.2456 56.5723 50.3217 83.2685C23.3929 109.969 10.869 141.853 18.9478 172.604C27.0267 203.355 54.2144 227.287 91.78 241.073C129.339 254.858 177.202 258.467 226.459 248.604C275.715 238.741 316.993 217.282 343.917 190.586ZM226.584 249.08C325.252 229.323 392.047 163.094 375.774 101.153C359.501 39.2126 266.323 5.01625 167.654 24.7736C68.9863 44.5309 2.19183 110.76 18.4648 172.701C34.7377 234.641 127.916 268.838 226.584 249.08Z" fill="url(#paint0_linear_781_88)"/>
<path d="M343.001 108.835C349.785 134.657 338.964 161.509 315.822 184.058C292.686 206.602 257.287 224.785 215.102 233.232C172.917 241.679 131.98 238.782 99.9032 227.294C67.8186 215.803 44.6753 195.752 37.8912 169.93C31.1072 144.107 41.9284 117.256 65.0701 94.7065C88.2059 72.1629 123.605 53.9798 165.79 45.5326C207.975 37.0855 248.912 39.983 280.989 51.4709C313.074 62.9617 336.217 83.0122 343.001 108.835Z" stroke="#456441"/>
<circle opacity="0.6" cx="87.8426" cy="76.716" r="12.5919" fill="#456441"/>
</g>
<defs>
<linearGradient id="paint0_linear_781_88" x1="83.0374" y1="60.274" x2="248.78" y2="264.884" gradientUnits="userSpaceOnUse">
<stop stop-color="white" stop-opacity="0"/>
<stop offset="1" stop-color="#456441"/>
</linearGradient>
<clipPath id="clip0_781_88">
<rect width="393" height="273" rx="16" fill="white"/>
</clipPath>
</defs>
</svg>
