<svg xmlns="http://www.w3.org/2000/svg" width="126.75" height="37.5" viewBox="0 0 126.75 37.5" className="h-10">
  <defs>
    <clipPath id="e3505825ee">
      <path d="M 0.710938 0 L 35.753906 0 L 35.753906 36.960938 L 0.710938 36.960938 Z M 0.710938 0 " />
    </clipPath>
    <clipPath id="f95341c83c">
      <path d="M 12.390625 12.675781 L 12.390625 15.132812 L 29.511719 15.132812 L 29.511719 31.023438 L 13.621094 31.023438 L 13.621094 24.328125 L 24.070312 24.328125 L 24.070312 21.871094 L 21.566406 21.871094 L 21.566406 21.851562 L 11.164062 21.851562 L 11.164062 21.871094 L 6.953125 21.871094 L 6.953125 5.980469 L 24.070312 5.980469 L 24.070312 3.523438 L 4.496094 3.523438 L 4.496094 24.328125 L 11.164062 24.328125 L 11.164062 33.480469 L 31.96875 33.480469 L 31.96875 12.675781 L 12.390625 12.675781 " />
    </clipPath>
    <clipPath id="843fb532f7">
      <path d="M 25.429688 3.523438 L 31.980469 3.523438 L 31.980469 11.253906 L 25.429688 11.253906 Z M 25.429688 3.523438 " />
    </clipPath>
    <clipPath id="05f7676c41">
      <path d="M 4.484375 25.753906 L 9.59375 25.753906 L 9.59375 33.480469 L 4.484375 33.480469 Z M 4.484375 25.753906 " />
    </clipPath>
  </defs>
  <g clipPath="url(#e3505825ee)">
    <path fill="transparent" stroke="#456441" stroke-width="2" d="M 0.710938 0 L 35.753906 0 L 35.753906 36.960938 L 0.710938 36.960938 Z M 0.710938 0 " fillOpacity="1" fillRule="nonzero"/>
  </g>
  <g clipPath="url(#f95341c83c)">
    <path fill="#456441" d="M 12.390625 12.675781 L 12.390625 15.132812 L 29.511719 15.132812 L 29.511719 31.023438 L 13.621094 31.023438 L 13.621094 24.328125 L 24.070312 24.328125 L 24.070312 21.871094 L 21.566406 21.871094 L 21.566406 21.851562 L 11.164062 21.851562 L 11.164062 21.871094 L 6.953125 21.871094 L 6.953125 5.980469 L 24.070312 5.980469 L 24.070312 3.523438 L 4.496094 3.523438 L 4.496094 24.328125 L 11.164062 24.328125 L 11.164062 33.480469 L 31.96875 33.480469 L 31.96875 12.675781 L 12.390625 12.675781 " fillOpacity="1" fillRule="nonzero"/>
  </g>
  <g clipPath="url(#843fb532f7)">
    <path fill="#456441" d="M 25.429688 3.523438 L 31.980469 3.523438 L 31.980469 11.253906 L 25.429688 11.253906 Z M 25.429688 3.523438 " fillOpacity="1" fillRule="nonzero"/>
  </g>
  <g clipPath="url(#05f7676c41)">
    <path fill="#456441" d="M 4.484375 25.753906 L 9.59375 25.753906 L 9.59375 33.480469 L 4.484375 33.480469 Z M 4.484375 25.753906 " fillOpacity="1" fillRule="nonzero"/>
  </g>
  <g fill="#2d4229" fillOpacity="1">
    <g transform="translate(38.655914, 22.648034)">
      <g>
        <path d="M 0.859375 0 L 0.859375 -11.40625 L 4.703125 -11.40625 L 7.734375 -5.15625 L 8.765625 -2.4375 L 8.875 -2.46875 L 8.4375 -5.28125 L 8.4375 -11.40625 L 11.3125 -11.40625 L 11.3125 0 L 7.234375 0 L 4.296875 -6.21875 L 3.421875 -8.671875 L 3.265625 -8.640625 L 3.78125 -6.15625 L 3.78125 0 Z M 0.859375 0 "/>
      </g>
    </g>
  </g>
  <g fill="#2d4229" fillOpacity="1">
    <g transform="translate(51.57533, 22.648034)">
      <g>
        <path d="M 7.546875 -8.953125 L 3.359375 -8.953125 L 3.359375 -7.15625 L 7.375 -7.15625 L 7.375 -4.71875 L 3.359375 -4.71875 L 3.359375 -2.46875 L 7.546875 -2.46875 L 7.546875 0 L 0.546875 0 L 0.546875 -11.390625 L 7.546875 -11.390625 Z M 7.546875 -8.953125 "/>
      </g>
    </g>
  </g>
  <g fill="#2d4229" fillOpacity="1">
    <g transform="translate(60.052679, 22.648034)">
      <g>
        <path d="M 7.671875 -4.40625 L 10.4375 -0.078125 L 10.4375 0 L 7.078125 0 L 5.421875 -2.765625 L 4.859375 -3.953125 L 4.25 -2.75 L 2.640625 0 L -0.734375 0 L -0.734375 -0.078125 L 2.078125 -4.5 L 2.953125 -5.703125 L 2.09375 -6.890625 L -0.703125 -11.3125 L -0.703125 -11.390625 L 2.640625 -11.390625 L 4.296875 -8.625 L 4.859375 -7.5 L 5.390625 -8.625 L 7.0625 -11.390625 L 10.390625 -11.390625 L 10.390625 -11.296875 L 7.609375 -6.875 L 6.796875 -5.703125 Z M 7.671875 -4.40625 "/>
      </g>
    </g>
  </g>
  <g fill="#2d4229" fillOpacity="1">
    <g transform="translate(70.352418, 22.648034)">
      <g>
        <path d="M 7.796875 -11.390625 L 7.796875 -8.890625 L 5.140625 -8.890625 L 5.140625 0 L 2.234375 0 L 2.234375 -8.890625 L -0.390625 -8.890625 L -0.390625 -11.390625 Z M 7.796875 -11.390625 "/>
      </g>
    </g>
  </g>
  <g fill="#2d4229" fillOpacity="1">
    <g transform="translate(78.455524, 22.648034)">
      <g/>
    </g>
  </g>
  <g fill="#2d4229" fillOpacity="1">
    <g transform="translate(82.018943, 22.648034)">
      <g>
        <path d="M 9.5625 -11.46875 L 13.421875 -11.46875 L 13.421875 0 L 10.5625 0 L 10.5625 -4.796875 L 11 -7.921875 L 10.90625 -7.96875 L 9.71875 -4.859375 L 8.28125 -1.65625 L 5.90625 -1.65625 L 4.484375 -4.859375 L 3.28125 -7.96875 L 3.1875 -7.921875 L 3.625 -4.796875 L 3.625 0 L 0.78125 0 L 0.78125 -11.46875 L 4.6875 -11.46875 L 7.09375 -5.0625 Z M 9.5625 -11.46875 "/>
      </g>
    </g>
  </g>
  <g fill="#2d4229" fillOpacity="1">
    <g transform="translate(96.728199, 22.648034)">
      <g>
        <path d="M 7.765625 0 L 6.875 -2.6875 L 3.21875 -2.6875 L 2.359375 0 L -0.734375 0 L 3.15625 -11.390625 L 6.9375 -11.390625 L 10.875 0 Z M 5 -9.3125 L 4.703125 -7.71875 L 3.984375 -5.28125 L 6.09375 -5.28125 L 5.40625 -7.71875 L 5.109375 -9.3125 Z M 5 -9.3125 "/>
      </g>
    </g>
  </g>
  <g fill="#2d4229" fillOpacity="1">
    <g transform="translate(107.678782, 22.648034)">
      <g>
        <path d="M 5.28125 -2.625 L 8.203125 -2.625 L 8.203125 0 L 0.09375 0 L 0.09375 -2.140625 L 4.765625 -8.9375 L 2.953125 -8.890625 L 0.3125 -8.890625 L 0.3125 -11.390625 L 8.078125 -11.390625 L 8.078125 -9.09375 L 3.40625 -2.578125 Z M 5.28125 -2.625 "/>
      </g>
    </g>
  </g>
  <g fill="#2d4229" fillOpacity="1">
    <g transform="translate(116.595461, 22.648034)">
      <g>
        <path d="M 7.546875 -8.953125 L 3.359375 -8.953125 L 3.359375 -7.15625 L 7.375 -7.15625 L 7.375 -4.71875 L 3.359375 -4.71875 L 3.359375 -2.46875 L 7.546875 -2.46875 L 7.546875 0 L 0.546875 0 L 0.546875 -11.390625 L 7.546875 -11.390625 Z M 7.546875 -8.953125 "/>
      </g>
    </g>
  </g>
</svg>